<?xml version="1.0" standalone="no"?>
<!DOCTYPE svg PUBLIC "-//W3C//DTD SVG 20010904//EN"
 "http://www.w3.org/TR/2001/REC-SVG-20010904/DTD/svg10.dtd">
<svg version="1.0" xmlns="http://www.w3.org/2000/svg"
 width="512.000000pt" height="512.000000pt" viewBox="0 0 512.000000 512.000000"
 preserveAspectRatio="xMidYMid meet">
<metadata>
Created by potrace 1.14, written by Peter Selinger 2001-2017
</metadata>
<g transform="translate(0.000000,512.000000) scale(0.100000,-0.100000)"
fill="#000000" stroke="none">
<path d="M2550 4920 c-585 -46 -1122 -318 -1488 -753 -40 -47 -42 -88 -7 -122
44 -45 78 -35 148 43 198 218 383 358 631 478 771 373 1735 216 2360 -385 258
-248 450 -578 541 -927 54 -206 68 -330 69 -584 1 -252 -11 -379 -61 -615 -58
-280 -200 -693 -319 -927 -13 -26 -24 -60 -24 -76 0 -52 61 -87 115 -66 43 17
218 441 306 742 96 330 133 580 133 912 1 301 -17 447 -86 695 -236 850 -964
1462 -1873 1574 -121 15 -328 20 -445 11z"/>
<path d="M2757 4525 c-52 -25 -60 -100 -14 -129 12 -8 63 -20 112 -26 184 -23
357 -68 517 -135 98 -41 108 -42 144 -12 30 27 37 74 14 102 -70 85 -685 244
-773 200z"/>
<path d="M2247 4500 c-368 -80 -696 -273 -922 -544 -180 -216 -256 -393 -415
-971 -89 -327 -138 -473 -200 -602 -76 -159 -169 -286 -280 -380 -36 -30 -70
-67 -76 -81 -16 -36 1 -79 37 -97 42 -22 81 -2 179 91 232 222 330 426 500
1046 163 592 243 762 464 984 208 207 462 340 770 403 113 23 136 38 136 92 0
29 -6 42 -26 58 -32 25 -53 25 -167 1z"/>
<path d="M3751 4124 c-42 -54 -30 -78 83 -163 189 -142 363 -355 460 -562 126
-271 183 -587 157 -882 -31 -359 -93 -609 -249 -1011 -62 -159 -65 -170 -51
-194 8 -15 26 -33 41 -41 24 -14 30 -14 60 1 32 15 39 29 100 184 124 319 190
551 231 814 18 122 22 184 22 390 -1 228 -3 254 -28 375 -98 461 -329 826
-683 1079 -65 45 -112 49 -143 10z"/>
<path d="M2516 4129 c-475 -50 -862 -304 -1070 -702 -61 -116 -61 -167 -3
-192 57 -24 81 -5 139 108 169 329 445 534 828 613 121 26 380 26 515 0 511
-95 916 -427 1074 -879 72 -206 96 -436 67 -637 -73 -493 -279 -1071 -581
-1624 -25 -46 -45 -94 -45 -108 0 -63 77 -98 123 -56 31 28 115 179 217 393
232 484 379 945 445 1395 45 302 -34 672 -200 948 -308 507 -912 804 -1509
741z"/>
<path d="M843 3870 c-45 -18 -148 -239 -281 -605 -147 -405 -215 -560 -332
-755 -38 -64 -70 -126 -70 -138 0 -35 42 -75 80 -75 44 0 68 28 154 177 117
200 181 352 380 896 31 85 86 214 121 286 36 72 65 136 65 142 0 25 -24 60
-47 71 -28 13 -40 13 -70 1z"/>
<path d="M2505 3739 c-102 -13 -237 -54 -329 -100 -235 -118 -404 -320 -489
-584 -31 -98 -40 -141 -67 -320 -111 -737 -369 -1256 -798 -1604 -54 -45 -69
-73 -58 -116 8 -30 59 -59 92 -51 33 9 206 158 285 247 340 380 533 839 639
1518 33 209 64 321 119 426 164 315 523 482 901 420 173 -29 173 -29 198 -5
28 26 30 89 5 113 -24 20 -117 44 -228 57 -103 11 -171 11 -270 -1z"/>
<path d="M3205 3545 c-24 -23 -31 -57 -19 -89 3 -9 40 -40 83 -69 91 -65 194
-171 259 -270 50 -76 79 -95 126 -83 19 5 32 18 42 42 14 33 14 39 -7 77 -62
121 -204 277 -334 366 -82 57 -114 63 -150 26z"/>
<path d="M2515 3335 c-131 -28 -260 -107 -348 -213 -60 -71 -131 -214 -153
-309 -17 -67 -16 -73 0 -98 23 -34 57 -47 94 -34 34 12 42 26 76 139 99 332
424 462 756 303 57 -27 94 -55 156 -117 121 -122 174 -246 174 -411 0 -136
-64 -459 -140 -706 -38 -121 -38 -151 -4 -178 34 -27 67 -27 98 2 38 33 113
296 172 602 69 359 18 586 -180 794 -179 188 -460 279 -701 226z"/>
<path d="M1330 2957 c-30 -15 -38 -40 -85 -237 -78 -332 -211 -671 -335 -856
-96 -141 -208 -244 -302 -274 -43 -13 -78 -52 -78 -87 0 -13 12 -36 26 -50 22
-21 32 -25 68 -21 73 9 172 65 262 150 157 149 287 376 395 687 73 210 161
549 161 620 0 57 -61 95 -112 68z"/>
<path d="M2631 2959 c-85 -17 -168 -83 -224 -180 -43 -74 -75 -206 -96 -403
-46 -414 -129 -677 -309 -974 -52 -87 -101 -169 -109 -184 -33 -63 28 -131 96
-107 61 22 276 409 349 630 73 220 103 363 132 627 11 100 29 209 39 242 49
158 137 227 235 186 58 -24 101 -21 125 10 56 72 -11 140 -154 157 -22 3 -60
1 -84 -4z"/>
<path d="M3705 2911 c-50 -21 -52 -38 -25 -211 24 -159 7 -340 -55 -584 -42
-169 -43 -188 -9 -215 33 -26 64 -27 96 -1 44 34 122 369 134 570 9 162 -19
377 -54 419 -20 24 -59 33 -87 22z"/>
<path d="M2880 2700 c-11 -11 -20 -23 -21 -27 0 -5 -2 -64 -3 -133 -5 -198
-59 -418 -176 -712 -63 -158 -67 -185 -27 -213 31 -22 84 -19 104 5 24 27 103
224 153 377 106 325 139 635 74 700 -29 29 -77 30 -104 3z"/>
<path d="M1984 2455 c-17 -7 -34 -21 -38 -31 -4 -11 -23 -94 -42 -186 -38
-185 -87 -357 -140 -489 -41 -103 -42 -122 -9 -154 29 -30 74 -33 103 -7 72
60 257 741 226 829 -13 37 -59 55 -100 38z"/>
<path d="M3031 1547 c-17 -8 -55 -74 -130 -222 -153 -302 -253 -458 -510 -794
-69 -91 -131 -174 -138 -185 -34 -58 6 -120 73 -114 38 3 44 9 177 183 268
350 409 569 553 861 99 202 105 237 43 269 -34 18 -37 18 -68 2z"/>
<path d="M3463 1520 c-28 -11 -44 -36 -86 -135 -139 -325 -353 -680 -587 -973
-94 -119 -105 -146 -75 -189 21 -30 69 -39 100 -19 63 41 320 392 453 619 125
212 302 580 302 627 0 23 -38 67 -65 73 -11 3 -30 2 -42 -3z"/>
<path d="M1612 1423 c-7 -3 -36 -39 -64 -81 -83 -125 -194 -258 -332 -400
-110 -113 -129 -137 -129 -164 0 -37 41 -78 78 -78 80 0 565 559 565 650 0 42
-35 80 -73 79 -18 0 -38 -3 -45 -6z"/>
<path d="M2532 1418 c-14 -7 -43 -50 -74 -111 -122 -238 -391 -588 -629 -820
-55 -54 -63 -87 -28 -131 15 -19 30 -26 55 -26 29 0 46 10 96 57 221 210 479
543 626 809 79 142 84 164 44 204 -32 32 -52 36 -90 18z"/>
<path d="M1784 1037 c-12 -7 -48 -46 -79 -87 -66 -86 -143 -176 -232 -272 -72
-77 -81 -111 -38 -153 33 -34 76 -33 114 3 78 73 287 322 330 392 28 47 27 66
-8 101 -32 31 -54 35 -87 16z"/>
</g>
</svg>
